<svg width="150" height="150" viewBox="0 0 150 150" fill="none" xmlns="http://www.w3.org/2000/svg">
<path d="M149.256 75.4341C149.256 34.2525 115.872 0.868164 74.69 0.868164C33.5083 0.868164 0.124023 34.2525 0.124023 75.4341C0.124023 116.616 33.5083 150 74.69 150C115.872 150 149.256 116.616 149.256 75.4341Z" fill="white"/>
<path d="M38.5255 96.3529C40.5612 96.3529 42.3525 95.8033 43.8996 94.7041C45.4874 93.6048 46.2812 91.956 46.2812 89.7575C46.2812 87.5183 45.4263 85.8084 43.7164 84.6277C42.0472 83.4471 39.6451 82.4293 36.5103 81.5743C33.4161 80.6786 31.1566 79.9051 29.7316 79.2537C28.3474 78.6023 27.0243 77.7473 25.7622 76.6888C23.238 74.5718 21.9759 71.2944 21.9759 66.8568C21.9759 63.2333 23.2584 60.1188 25.8233 57.5133C28.4288 54.9077 31.9708 53.6049 36.4492 53.6049C38.607 53.6049 40.8461 53.9306 43.1667 54.582C45.5281 55.1926 46.9937 55.498 47.5637 55.498C48.1337 55.498 48.6426 55.0909 49.0904 54.2766H49.7622L50.1896 66.6125H49.2125C47.2583 63.0705 45.2024 60.241 43.0446 58.1239C40.9276 55.9662 38.607 54.8873 36.0828 54.8873C33.5993 54.8873 31.6655 55.4776 30.2813 56.6583C28.897 57.7982 28.2049 59.3453 28.2049 61.2995C28.2049 63.213 29.0192 64.699 30.6477 65.7575C32.3169 66.7753 34.3525 67.6099 36.7545 68.2613C39.1566 68.9127 40.724 69.3606 41.4568 69.6048C42.2304 69.8491 43.1667 70.1952 44.266 70.643C45.4059 71.0501 46.322 71.498 47.0141 71.9865C47.7469 72.4344 48.5001 73.0247 49.2736 73.7575C50.0879 74.4496 50.7189 75.2232 51.1667 76.0781C52.266 78.0323 52.8156 80.3529 52.8156 83.0399C52.8156 87.4369 51.4314 90.9789 48.6629 93.6659C45.9352 96.3122 42.3321 97.6353 37.8538 97.6353C35.5332 97.6353 32.8665 97.33 29.8538 96.7193C26.8818 96.1086 25.2329 95.8033 24.9072 95.8033C24.3372 95.8033 23.7876 96.414 23.2584 97.6353H22.4034L21.7927 83.101H22.8309C24.6222 86.643 26.9021 89.7371 29.6706 92.3834C32.4797 95.0297 35.4314 96.3529 38.5255 96.3529ZM56.578 54.2766H78.5627V55.6201H72.0894V95.6811H74.2879C77.7484 95.6811 80.4965 94.6226 82.5322 92.5056C84.6085 90.3885 86.7052 87.1315 88.8222 82.7346H90.1047L88.9444 97.0247H56.578V95.6811H60.181V55.6201H56.578V54.2766ZM111.522 96.3529C113.557 96.3529 115.349 95.8033 116.896 94.7041C118.483 93.6048 119.277 91.956 119.277 89.7575C119.277 87.5183 118.422 85.8084 116.712 84.6277C115.043 83.4471 112.641 82.4293 109.506 81.5743C106.412 80.6786 104.153 79.9051 102.728 79.2537C101.344 78.6023 100.02 77.7473 98.7583 76.6888C96.2341 74.5718 94.972 71.2944 94.972 66.8568C94.972 63.2333 96.2545 60.1188 98.8193 57.5133C101.425 54.9077 104.967 53.6049 109.445 53.6049C111.603 53.6049 113.842 53.9306 116.163 54.582C118.524 55.1926 119.99 55.498 120.56 55.498C121.13 55.498 121.639 55.0909 122.086 54.2766H122.758L123.186 66.6125H122.209C120.254 63.0705 118.198 60.241 116.041 58.1239C113.924 55.9662 111.603 54.8873 109.079 54.8873C106.595 54.8873 104.662 55.4776 103.277 56.6583C101.893 57.7982 101.201 59.3453 101.201 61.2995C101.201 63.213 102.015 64.699 103.644 65.7575C105.313 66.7753 107.349 67.6099 109.751 68.2613C112.153 68.9127 113.72 69.3606 114.453 69.6048C115.226 69.8491 116.163 70.1952 117.262 70.643C118.402 71.0501 119.318 71.498 120.01 71.9865C120.743 72.4344 121.496 73.0247 122.27 73.7575C123.084 74.4496 123.715 75.2232 124.163 76.0781C125.262 78.0323 125.812 80.3529 125.812 83.0399C125.812 87.4369 124.427 90.9789 121.659 93.6659C118.931 96.3122 115.328 97.6353 110.85 97.6353C108.529 97.6353 105.863 97.33 102.85 96.7193C99.8779 96.1086 98.229 95.8033 97.9033 95.8033C97.3333 95.8033 96.7837 96.414 96.2545 97.6353H95.3995L94.7888 83.101H95.827C97.6183 86.643 99.8982 89.7371 102.667 92.3834C105.476 95.0297 108.427 96.3529 111.522 96.3529Z" fill="black"/>
</svg>
