<svg width="532" height="150" viewBox="0 0 532 150" fill="none" xmlns="http://www.w3.org/2000/svg">
<path d="M149.132 74.5659C149.132 33.3843 115.748 0 74.5659 0C33.3843 0 0 33.3843 0 74.5659C0 115.748 33.3843 149.132 74.5659 149.132C115.748 149.132 149.132 115.748 149.132 74.5659Z" fill="white"/>
<path d="M37.916 49.397C38.7303 49.397 39.7277 49.4377 40.9084 49.5191C42.1297 49.6006 43.3715 49.7227 44.6336 49.8855C45.9364 50.0077 47.056 50.1502 47.9923 50.313C48.9694 50.4352 49.6412 50.5777 50.0076 50.7405L49.2748 58.9848H48.6641C48.6641 56.8677 47.8702 55.1782 46.2824 53.9161C44.7353 52.6133 42.659 51.9619 40.0534 51.9619C37.6921 51.9619 35.7786 52.5319 34.313 53.6718C32.888 54.8117 32.1348 56.196 32.0534 57.8245C32.0127 59.0458 32.3995 60.1044 33.2137 61C34.028 61.8957 35.0661 62.7303 36.3282 63.5039L47.9923 71.0764C49.8651 72.1349 51.2697 73.5191 52.2061 75.229C53.1832 76.9389 53.6106 78.9339 53.4885 81.2138C53.2849 85.2036 51.7582 88.3181 48.9084 90.5573C46.0585 92.7557 42.1908 93.855 37.3053 93.855C35.514 93.855 33.7633 93.6921 32.0534 93.3664C30.3842 93.0814 28.8982 92.6743 27.5954 92.145C26.2926 91.5751 25.2544 90.9033 24.4809 90.1298C24.1552 89.2341 24.0127 88.1552 24.0534 86.8931C24.0941 85.6311 24.2774 84.3486 24.603 83.0458C24.9695 81.743 25.4173 80.6641 25.9466 79.8092H26.4962C26.3333 81.8855 26.6997 83.8193 27.5954 85.6107C28.5318 87.3613 29.8753 88.7659 31.6259 89.8244C33.4173 90.8422 35.5343 91.3308 37.9771 91.2901C40.6641 91.2494 42.7404 90.5776 44.2061 89.2748C45.6717 87.9313 46.4046 86.3232 46.4046 84.4504C46.4046 83.1883 46.0178 82.0484 45.2442 81.0305C44.5114 80.0127 43.2901 79.0356 41.5801 78.0993L30.8931 71.0153C28.7354 69.7939 27.1679 68.2265 26.1908 66.313C25.2137 64.3995 24.827 62.3232 25.0305 60.084C25.2341 57.967 25.8651 56.1145 26.9237 54.5268C27.9822 52.8983 29.4275 51.6362 31.2595 50.7405C33.1323 49.8448 35.3511 49.397 37.916 49.397ZM50.0687 50.0077L49.9465 51.2901H42.7404V50.0077H50.0687ZM72.3749 50.252V93H63.2146V50.252H72.3749ZM88.4971 90.374L89.9627 93H72.1917V90.374H88.4971ZM92.9551 80.4809L90.1459 93H78.1765L80.3749 90.374C82.4106 90.374 84.2019 89.9873 85.749 89.2137C87.296 88.3995 88.6192 87.2595 89.7184 85.7939C90.8177 84.2875 91.693 82.5166 92.3444 80.4809H92.9551ZM63.3979 88.542V93H58.5124V92.3893C58.5124 92.3893 58.6345 92.3893 58.8788 92.3893C59.1638 92.3893 59.3063 92.3893 59.3063 92.3893C60.3648 92.3893 61.2605 92.0229 61.9933 91.2901C62.7668 90.5165 63.1739 89.6005 63.2146 88.542H63.3979ZM63.3979 54.71H63.2146C63.1739 53.6514 62.7668 52.7558 61.9933 52.0229C61.2605 51.2494 60.3648 50.8626 59.3063 50.8626C59.3063 50.8626 59.1638 50.8626 58.8788 50.8626C58.6345 50.8626 58.5124 50.8626 58.5124 50.8626V50.252H63.3979V54.71ZM72.1917 54.71V50.252H77.0772V50.8626C77.0365 50.8626 76.894 50.8626 76.6497 50.8626C76.4055 50.8626 76.2833 50.8626 76.2833 50.8626C75.2248 50.8626 74.3088 51.2494 73.5352 52.0229C72.8024 52.7558 72.4157 53.6514 72.3749 54.71H72.1917ZM110.554 49.397C111.369 49.397 112.366 49.4377 113.547 49.5191C114.768 49.6006 116.01 49.7227 117.272 49.8855C118.575 50.0077 119.694 50.1502 120.631 50.313C121.608 50.4352 122.279 50.5777 122.646 50.7405L121.913 58.9848H121.302C121.302 56.8677 120.508 55.1782 118.921 53.9161C117.374 52.6133 115.297 51.9619 112.692 51.9619C110.33 51.9619 108.417 52.5319 106.951 53.6718C105.526 54.8117 104.773 56.196 104.692 57.8245C104.651 59.0458 105.038 60.1044 105.852 61C106.666 61.8957 107.704 62.7303 108.967 63.5039L120.631 71.0764C122.503 72.1349 123.908 73.5191 124.844 75.229C125.821 76.9389 126.249 78.9339 126.127 81.2138C125.923 85.2036 124.397 88.3181 121.547 90.5573C118.697 92.7557 114.829 93.855 109.944 93.855C108.152 93.855 106.402 93.6921 104.692 93.3664C103.022 93.0814 101.536 92.6743 100.234 92.145C98.9309 91.5751 97.8927 90.9033 97.1192 90.1298C96.7935 89.2341 96.651 88.1552 96.6917 86.8931C96.7324 85.6311 96.9156 84.3486 97.2413 83.0458C97.6077 81.743 98.0556 80.6641 98.5848 79.8092H99.1345C98.9716 81.8855 99.338 83.8193 100.234 85.6107C101.17 87.3613 102.514 88.7659 104.264 89.8244C106.056 90.8422 108.173 91.3308 110.615 91.2901C113.302 91.2494 115.379 90.5776 116.844 89.2748C118.31 87.9313 119.043 86.3232 119.043 84.4504C119.043 83.1883 118.656 82.0484 117.883 81.0305C117.15 80.0127 115.928 79.0356 114.218 78.0993L103.531 71.0153C101.374 69.7939 99.8062 68.2265 98.8291 66.313C97.852 64.3995 97.4652 62.3232 97.6688 60.084C97.8724 57.967 98.5034 56.1145 99.5619 54.5268C100.62 52.8983 102.066 51.6362 103.898 50.7405C105.771 49.8448 107.989 49.397 110.554 49.397ZM122.707 50.0077L122.585 51.2901H115.379V50.0077H122.707Z" fill="#0E1216"/>
<path d="M187.305 24.5067C188.378 24.5067 189.694 24.5604 191.25 24.6678C192.861 24.7751 194.498 24.9362 196.162 25.1509C197.88 25.312 199.356 25.4998 200.591 25.7146C201.879 25.8756 202.765 26.0635 203.248 26.2782L202.282 37.1488H201.477C201.477 34.3573 200.43 32.1296 198.336 30.4654C196.297 28.7476 193.559 27.8887 190.123 27.8887C187.01 27.8887 184.487 28.6402 182.554 30.1433C180.675 31.6464 179.682 33.4716 179.575 35.6189C179.521 37.2293 180.031 38.6251 181.105 39.8061C182.178 40.9871 183.547 42.0875 185.211 43.1075L200.591 53.0923C203.06 54.488 204.912 56.3132 206.147 58.5679C207.436 60.8225 207.999 63.4529 207.838 66.4591C207.57 71.7199 205.557 75.8266 201.799 78.7791C198.041 81.6779 192.941 83.1273 186.5 83.1273C184.138 83.1273 181.829 82.9126 179.575 82.4831C177.374 82.1074 175.414 81.5705 173.696 80.8727C171.979 80.1211 170.61 79.2354 169.59 78.2154C169.16 77.0344 168.972 75.6119 169.026 73.9477C169.08 72.2836 169.321 70.5926 169.751 68.8748C170.234 67.157 170.824 65.7344 171.522 64.6071H172.247C172.032 67.3449 172.515 69.8947 173.696 72.2567C174.931 74.5651 176.703 76.4171 179.011 77.8128C181.373 79.1549 184.164 79.799 187.385 79.7454C190.928 79.6917 193.666 78.8059 195.599 77.0881C197.531 75.3166 198.497 73.1962 198.497 70.7268C198.497 69.0627 197.988 67.5596 196.968 66.2175C196.001 64.8755 194.391 63.5871 192.136 62.3524L178.045 53.0118C175.2 51.4013 173.133 49.3346 171.844 46.8115C170.556 44.2885 170.046 41.5507 170.315 38.5982C170.583 35.8068 171.415 33.3642 172.811 31.2706C174.206 29.1234 176.112 27.4592 178.528 26.2782C180.997 25.0972 183.923 24.5067 187.305 24.5067ZM203.329 25.312L203.168 27.0029H193.666V25.312H203.329ZM234.352 25.634V82H222.273V25.634H234.352ZM255.61 78.5375L257.542 82H234.11V78.5375H255.61ZM252.63 52.5287V55.9106H234.11V52.5287H252.63ZM256.576 25.634V29.0965H234.11V25.634H256.576ZM261.488 65.4928L257.784 82H242.001L244.9 78.5375C247.584 78.5375 249.946 78.0275 251.986 77.0076C254.026 75.9339 255.771 74.4309 257.22 72.4983C258.669 70.5121 259.824 68.1769 260.682 65.4928H261.488ZM252.63 55.7496V63.4798H251.825V62.8356C251.825 60.8493 251.181 59.212 249.892 57.9237C248.604 56.6353 246.967 55.9643 244.981 55.9106V55.7496H252.63ZM252.63 44.9595V52.6897H244.981V52.5287C246.967 52.475 248.604 51.804 249.892 50.5156C251.181 49.1735 251.825 47.5094 251.825 45.5232V44.9595H252.63ZM256.576 28.855V38.2761H255.771V37.3099C255.771 34.8405 255.019 32.8543 253.516 31.3512C252.067 29.8481 250.08 29.0697 247.557 29.016V28.855H256.576ZM256.576 24.1846V26.5198L246.752 25.634C247.933 25.634 249.168 25.5535 250.456 25.3925C251.798 25.2314 253.033 25.0435 254.16 24.8288C255.287 24.6141 256.093 24.3994 256.576 24.1846ZM222.515 76.1218V82H216.073V81.1948C216.073 81.1948 216.234 81.1948 216.556 81.1948C216.932 81.1948 217.12 81.1948 217.12 81.1948C218.515 81.1948 219.696 80.7116 220.663 79.7454C221.683 78.7254 222.219 77.5176 222.273 76.1218H222.515ZM222.515 31.5122H222.273C222.219 30.1165 221.683 28.9355 220.663 27.9692C219.696 26.9493 218.515 26.4393 217.12 26.4393C217.12 26.4393 216.932 26.4393 216.556 26.4393C216.234 26.4393 216.073 26.4393 216.073 26.4393V25.634H222.515V31.5122ZM293.684 24.0236L320.015 81.5169H305.52L288.772 39.5645L293.684 24.0236ZM276.371 76.1218C275.942 77.1955 275.861 78.1081 276.13 78.8596C276.398 79.6112 276.854 80.2017 277.499 80.6311C278.143 81.0069 278.787 81.1948 279.431 81.1948H280.156V82H262.924V81.1948C262.924 81.1948 263.058 81.1948 263.327 81.1948C263.541 81.1948 263.649 81.1948 263.649 81.1948C264.883 81.1948 266.145 80.819 267.433 80.0675C268.775 79.2622 269.876 77.947 270.735 76.1218H276.371ZM293.684 24.0236L294.006 33.8474L274.036 81.7584H268.158L289.013 34.5721C289.174 34.25 289.443 33.6595 289.819 32.8006C290.248 31.888 290.677 30.868 291.107 29.7407C291.59 28.6134 292.019 27.5398 292.395 26.5198C292.771 25.4462 292.959 24.6141 292.959 24.0236H293.684ZM302.138 62.8356V66.2175H278.465V62.8356H302.138ZM303.346 76.1218H317.438C318.35 77.947 319.451 79.2622 320.739 80.0675C322.028 80.819 323.289 81.1948 324.524 81.1948C324.524 81.1948 324.631 81.1948 324.846 81.1948C325.061 81.1948 325.168 81.1948 325.168 81.1948V82H299.562V81.1948H300.286C301.36 81.1948 302.3 80.7653 303.105 79.9064C303.91 78.9938 303.991 77.7323 303.346 76.1218ZM350.285 25.8756V82H338.207V25.8756H350.285ZM370.014 25.5535V28.9355H318.479V25.5535H370.014ZM370.014 28.6939V38.1956L369.208 38.1151V37.2293C369.208 34.7063 368.457 32.72 366.954 31.2706C365.504 29.7675 363.518 28.9892 360.995 28.9355V28.6939H370.014ZM370.014 24.1041V26.4393L360.19 25.5535C361.371 25.5535 362.605 25.473 363.894 25.312C365.236 25.1509 366.471 24.963 367.598 24.7483C368.725 24.5336 369.53 24.3188 370.014 24.1041ZM338.449 76.1218V82H332.007V81.1948C332.007 81.1948 332.168 81.1948 332.49 81.1948C332.866 81.1948 333.054 81.1948 333.054 81.1948C334.449 81.1948 335.63 80.7116 336.597 79.7454C337.617 78.7254 338.153 77.5176 338.207 76.1218H338.449ZM350.044 76.1218H350.285C350.339 77.5176 350.849 78.7254 351.815 79.7454C352.835 80.7116 354.043 81.1948 355.439 81.1948C355.439 81.1948 355.6 81.1948 355.922 81.1948C356.298 81.1948 356.486 81.1948 356.486 81.1948V82H350.044V76.1218ZM327.417 28.6939V28.9355C324.948 28.9892 322.961 29.7675 321.458 31.2706C320.009 32.72 319.284 34.7063 319.284 37.2293V38.1151L318.479 38.1956V28.6939H327.417ZM318.479 24.1041C319.016 24.3188 319.821 24.5336 320.895 24.7483C322.022 24.963 323.257 25.1509 324.599 25.312C325.941 25.473 327.175 25.5535 328.303 25.5535L318.479 26.4393V24.1041ZM407.019 25.8756V82H394.941V25.8756H407.019ZM426.748 25.5535V28.9355H375.213V25.5535H426.748ZM426.748 28.6939V38.1956L425.942 38.1151V37.2293C425.942 34.7063 425.191 32.72 423.688 31.2706C422.238 29.7675 420.252 28.9892 417.729 28.9355V28.6939H426.748ZM426.748 24.1041V26.4393L416.924 25.5535C418.105 25.5535 419.339 25.473 420.628 25.312C421.97 25.1509 423.205 24.963 424.332 24.7483C425.459 24.5336 426.264 24.3188 426.748 24.1041ZM395.183 76.1218V82H388.741V81.1948C388.741 81.1948 388.902 81.1948 389.224 81.1948C389.6 81.1948 389.788 81.1948 389.788 81.1948C391.183 81.1948 392.364 80.7116 393.331 79.7454C394.351 78.7254 394.887 77.5176 394.941 76.1218H395.183ZM406.778 76.1218H407.019C407.073 77.5176 407.583 78.7254 408.549 79.7454C409.569 80.7116 410.777 81.1948 412.173 81.1948C412.173 81.1948 412.334 81.1948 412.656 81.1948C413.032 81.1948 413.22 81.1948 413.22 81.1948V82H406.778V76.1218ZM384.151 28.6939V28.9355C381.682 28.9892 379.695 29.7675 378.192 31.2706C376.743 32.72 376.018 34.7063 376.018 37.2293V38.1151L375.213 38.1956V28.6939H384.151ZM375.213 24.1041C375.75 24.3188 376.555 24.5336 377.629 24.7483C378.756 24.963 379.991 25.1509 381.333 25.312C382.675 25.473 383.909 25.5535 385.037 25.5535L375.213 26.4393V24.1041ZM451.065 25.634V82H438.986V25.634H451.065ZM472.323 78.5375L474.255 82H450.823V78.5375H472.323ZM478.201 65.4928L474.497 82H458.714L461.613 78.5375C464.297 78.5375 466.659 78.0275 468.699 77.0076C470.739 75.9339 472.484 74.4309 473.933 72.4983C475.383 70.5121 476.537 68.1769 477.396 65.4928H478.201ZM439.228 76.1218V82H432.786V81.1948C432.786 81.1948 432.947 81.1948 433.269 81.1948C433.645 81.1948 433.833 81.1948 433.833 81.1948C435.229 81.1948 436.41 80.7116 437.376 79.7454C438.396 78.7254 438.933 77.5176 438.986 76.1218H439.228ZM439.228 31.5122H438.986C438.933 30.1165 438.396 28.9355 437.376 27.9692C436.41 26.9493 435.229 26.4393 433.833 26.4393C433.833 26.4393 433.645 26.4393 433.269 26.4393C432.947 26.4393 432.786 26.4393 432.786 26.4393V25.634H439.228V31.5122ZM450.823 31.5122V25.634H457.265V26.4393C457.211 26.4393 457.023 26.4393 456.701 26.4393C456.379 26.4393 456.218 26.4393 456.218 26.4393C454.823 26.4393 453.615 26.9493 452.595 27.9692C451.628 28.9355 451.118 30.1165 451.065 31.5122H450.823ZM501.901 25.634V82H489.823V25.634H501.901ZM523.159 78.5375L525.092 82H501.659V78.5375H523.159ZM520.18 52.5287V55.9106H501.659V52.5287H520.18ZM524.125 25.634V29.0965H501.659V25.634H524.125ZM529.037 65.4928L525.333 82H509.551L512.45 78.5375C515.134 78.5375 517.496 78.0275 519.536 77.0076C521.575 75.9339 523.32 74.4309 524.77 72.4983C526.219 70.5121 527.373 68.1769 528.232 65.4928H529.037ZM520.18 55.7496V63.4798H519.374V62.8356C519.374 60.8493 518.73 59.212 517.442 57.9237C516.154 56.6353 514.516 55.9643 512.53 55.9106V55.7496H520.18ZM520.18 44.9595V52.6897H512.53V52.5287C514.516 52.475 516.154 51.804 517.442 50.5156C518.73 49.1735 519.374 47.5094 519.374 45.5232V44.9595H520.18ZM524.125 28.855V38.2761H523.32V37.3099C523.32 34.8405 522.569 32.8543 521.065 31.3512C519.616 29.8481 517.63 29.0697 515.107 29.016V28.855H524.125ZM524.125 24.1846V26.5198L514.302 25.634C515.483 25.634 516.717 25.5535 518.006 25.3925C519.348 25.2314 520.582 25.0435 521.71 24.8288C522.837 24.6141 523.642 24.3994 524.125 24.1846ZM490.064 76.1218V82H483.622V81.1948C483.622 81.1948 483.783 81.1948 484.106 81.1948C484.481 81.1948 484.669 81.1948 484.669 81.1948C486.065 81.1948 487.246 80.7116 488.212 79.7454C489.232 78.7254 489.769 77.5176 489.823 76.1218H490.064ZM490.064 31.5122H489.823C489.769 30.1165 489.232 28.9355 488.212 27.9692C487.246 26.9493 486.065 26.4393 484.669 26.4393C484.669 26.4393 484.481 26.4393 484.106 26.4393C483.783 26.4393 483.622 26.4393 483.622 26.4393V25.634H490.064V31.5122Z" fill="white"/>
<path d="M173.367 103.005V132H170.675V103.005H173.367ZM184.551 130.716V132H173.243V130.716H184.551ZM187.077 125.29L184.675 132H177.799L179.29 130.716C180.754 130.716 181.941 130.495 182.852 130.053C183.791 129.584 184.551 128.935 185.131 128.106C185.71 127.278 186.221 126.339 186.663 125.29H187.077ZM170.799 128.976V132H167.485V131.586C167.485 131.586 167.568 131.586 167.734 131.586C167.927 131.586 168.024 131.586 168.024 131.586C168.742 131.586 169.349 131.337 169.846 130.84C170.371 130.316 170.647 129.694 170.675 128.976H170.799ZM170.799 106.029H170.675C170.647 105.311 170.371 104.704 169.846 104.207C169.349 103.682 168.742 103.42 168.024 103.42C168.024 103.42 167.927 103.42 167.734 103.42C167.568 103.42 167.485 103.42 167.485 103.42V103.005H170.799V106.029ZM173.243 106.029V103.005H176.556V103.42C176.529 103.42 176.432 103.42 176.266 103.42C176.101 103.42 176.018 103.42 176.018 103.42C175.3 103.42 174.679 103.682 174.154 104.207C173.657 104.704 173.395 105.311 173.367 106.029H173.243ZM200.99 103.005V132H198.297V103.005H200.99ZM198.421 128.976V132H195.108V131.586C195.108 131.586 195.191 131.586 195.356 131.586C195.55 131.586 195.646 131.586 195.646 131.586C196.364 131.586 196.972 131.337 197.469 130.84C197.993 130.316 198.27 129.694 198.297 128.976H198.421ZM198.421 106.029H198.297C198.27 105.311 197.993 104.704 197.469 104.207C196.972 103.682 196.364 103.42 195.646 103.42C195.646 103.42 195.55 103.42 195.356 103.42C195.191 103.42 195.108 103.42 195.108 103.42V103.005H198.421V106.029ZM200.865 128.976H200.99C201.017 129.694 201.28 130.316 201.777 130.84C202.301 131.337 202.923 131.586 203.64 131.586C203.64 131.586 203.723 131.586 203.889 131.586C204.055 131.586 204.151 131.586 204.179 131.586V132H200.865V128.976ZM200.865 106.029V103.005H204.179V103.42C204.151 103.42 204.055 103.42 203.889 103.42C203.723 103.42 203.64 103.42 203.64 103.42C202.923 103.42 202.301 103.682 201.777 104.207C201.28 104.704 201.017 105.311 200.99 106.029H200.865ZM242.282 102.425L242.613 105.201L232.216 128.355C232.216 128.355 232.106 128.59 231.885 129.059C231.692 129.529 231.485 130.095 231.264 130.757C231.043 131.392 230.891 132 230.808 132.58H230.394L229.814 129.97L242.282 102.425ZM216.808 128.976V132H212.21V131.586C212.238 131.586 212.348 131.586 212.541 131.586C212.762 131.586 212.873 131.586 212.873 131.586C213.618 131.586 214.281 131.365 214.861 130.923C215.441 130.454 215.786 129.805 215.897 128.976H216.808ZM218.009 129.639C218.009 129.667 218.009 129.694 218.009 129.722C218.009 129.749 218.009 129.791 218.009 129.846C218.009 130.288 218.161 130.702 218.465 131.089C218.796 131.448 219.183 131.627 219.624 131.627H220.246V132H217.719V129.639H218.009ZM219.003 102.425H219.417L220.246 104.869L217.802 132H215.565L219.003 102.425ZM219.417 102.425L231.347 128.231L230.394 132.58L218.63 107.065L219.417 102.425ZM242.654 102.425L246.217 132H242.986L240.708 106.899L242.282 102.425H242.654ZM244.974 128.976H245.844C245.982 129.805 246.341 130.454 246.921 130.923C247.501 131.365 248.15 131.586 248.868 131.586C248.868 131.586 248.978 131.586 249.199 131.586C249.42 131.586 249.53 131.586 249.53 131.586V132H244.974V128.976ZM242.779 129.639H243.069V132H240.542V131.627H241.163C241.633 131.627 242.019 131.448 242.323 131.089C242.627 130.702 242.779 130.288 242.779 129.846C242.779 129.791 242.779 129.749 242.779 129.722C242.779 129.694 242.779 129.667 242.779 129.639ZM272.271 102.425C275.226 102.425 277.821 103.061 280.058 104.331C282.295 105.573 284.035 107.327 285.277 109.591C286.547 111.856 287.183 114.493 287.183 117.503C287.183 120.513 286.547 123.15 285.277 125.414C284.035 127.678 282.295 129.446 280.058 130.716C277.821 131.959 275.226 132.58 272.271 132.58C269.344 132.58 266.762 131.959 264.525 130.716C262.289 129.446 260.535 127.678 259.265 125.414C258.022 123.15 257.401 120.513 257.401 117.503C257.401 114.493 258.022 111.856 259.265 109.591C260.535 107.327 262.289 105.573 264.525 104.331C266.762 103.061 269.344 102.425 272.271 102.425ZM272.271 131.337C274.618 131.337 276.662 130.757 278.401 129.598C280.169 128.438 281.535 126.822 282.502 124.751C283.496 122.68 283.993 120.264 283.993 117.503C283.993 114.741 283.496 112.325 282.502 110.254C281.535 108.183 280.169 106.568 278.401 105.408C276.662 104.248 274.618 103.668 272.271 103.668C269.951 103.668 267.908 104.248 266.141 105.408C264.401 106.568 263.034 108.183 262.04 110.254C261.074 112.325 260.59 114.741 260.59 117.503C260.59 120.264 261.074 122.68 262.04 124.751C263.034 126.822 264.401 128.438 266.141 129.598C267.908 130.757 269.951 131.337 272.271 131.337ZM320.305 102.425C320.747 102.425 321.216 102.453 321.713 102.508C322.238 102.564 322.735 102.646 323.204 102.757C323.701 102.84 324.143 102.936 324.53 103.047C324.944 103.13 325.262 103.226 325.483 103.337V107.934H325.11C325.11 106.609 324.654 105.573 323.743 104.828C322.832 104.055 321.727 103.668 320.429 103.668C318.91 103.668 317.682 104.151 316.743 105.118C315.804 106.057 315.334 107.161 315.334 108.432C315.334 108.956 315.445 109.578 315.666 110.295C315.914 110.986 316.356 111.635 316.991 112.242L325.151 119.781C325.98 120.554 326.532 121.382 326.808 122.266C327.084 123.15 327.222 124.006 327.222 124.834C327.222 127.126 326.518 128.99 325.11 130.426C323.729 131.862 321.851 132.58 319.477 132.58C318.814 132.58 318.027 132.511 317.116 132.373C316.232 132.235 315.362 132 314.506 131.669C313.678 131.31 312.987 130.854 312.435 130.302C312.352 129.86 312.311 129.308 312.311 128.645C312.311 127.982 312.366 127.292 312.476 126.574C312.587 125.828 312.739 125.152 312.932 124.544H313.305C313.167 125.953 313.346 127.181 313.843 128.231C314.34 129.28 315.058 130.081 315.997 130.633C316.964 131.158 318.054 131.392 319.269 131.337C320.788 131.254 322.086 130.73 323.163 129.763C324.268 128.769 324.82 127.444 324.82 125.787C324.82 124.986 324.682 124.268 324.406 123.633C324.129 122.97 323.729 122.404 323.204 121.935L315.252 114.562C314.423 113.789 313.843 112.946 313.512 112.035C313.181 111.096 313.015 110.226 313.015 109.426C313.015 108.266 313.291 107.147 313.843 106.071C314.396 104.994 315.21 104.124 316.287 103.461C317.392 102.771 318.731 102.425 320.305 102.425ZM325.483 102.84V103.71H322.335V102.84H325.483ZM342.905 103.005V132H340.212V103.005H342.905ZM354.088 130.716V132H342.78V130.716H354.088ZM352.307 117.088V118.331H342.78V117.088H352.307ZM354.088 103.005V104.289H342.78V103.005H354.088ZM356.615 125.29L354.212 132H347.337L348.828 130.716C350.291 130.716 351.479 130.495 352.39 130.053C353.329 129.584 354.088 128.935 354.668 128.106C355.248 127.278 355.759 126.339 356.201 125.29H356.615ZM352.307 118.248V120.982H351.893V120.361C351.893 119.808 351.7 119.339 351.313 118.952C350.926 118.538 350.457 118.331 349.905 118.331V118.248H352.307ZM352.307 114.438V117.171H349.905V117.088C350.457 117.061 350.926 116.854 351.313 116.467C351.7 116.053 351.893 115.57 351.893 115.017V114.438H352.307ZM354.088 104.165V107.479H353.674V106.733C353.674 106.071 353.439 105.504 352.97 105.035C352.5 104.538 351.921 104.276 351.23 104.248V104.165H354.088ZM354.088 102.26V103.461L349.035 103.005C349.642 103.005 350.277 102.964 350.94 102.881C351.631 102.798 352.266 102.702 352.846 102.591C353.425 102.481 353.84 102.37 354.088 102.26ZM340.336 128.976V132H337.023V131.586C337.023 131.586 337.106 131.586 337.271 131.586C337.465 131.586 337.561 131.586 337.561 131.586C338.279 131.586 338.887 131.337 339.384 130.84C339.908 130.316 340.185 129.694 340.212 128.976H340.336ZM340.336 106.029H340.212C340.212 105.311 339.95 104.704 339.425 104.207C338.901 103.682 338.279 103.42 337.561 103.42C337.561 103.42 337.478 103.42 337.313 103.42C337.147 103.42 337.064 103.42 337.064 103.42L337.023 103.005H340.336V106.029ZM370.838 103.005H376.678C377.921 103.005 379.039 103.185 380.034 103.544C381.055 103.903 381.911 104.428 382.602 105.118C383.292 105.781 383.817 106.595 384.176 107.562C384.562 108.501 384.756 109.577 384.756 110.793C384.756 112.118 384.438 113.388 383.803 114.603C383.195 115.818 382.353 116.812 381.276 117.586C380.227 118.331 379.039 118.704 377.714 118.704C378.183 118.897 378.694 119.298 379.247 119.905C379.799 120.485 380.282 121.051 380.696 121.603C380.696 121.603 380.876 121.879 381.235 122.432C381.621 122.956 382.091 123.605 382.643 124.379C383.223 125.152 383.803 125.911 384.383 126.657C384.963 127.402 385.46 127.996 385.874 128.438C386.426 129.045 386.978 129.584 387.531 130.053C388.083 130.523 388.677 130.895 389.312 131.172C389.975 131.448 390.706 131.586 391.507 131.586V132H389.229C387.959 132 386.854 131.807 385.915 131.42C385.004 131.034 384.231 130.564 383.596 130.012C382.961 129.432 382.422 128.88 381.98 128.355C381.897 128.245 381.663 127.927 381.276 127.402C380.917 126.878 380.475 126.256 379.951 125.538C379.454 124.793 378.957 124.061 378.46 123.343C377.963 122.625 377.534 122.018 377.176 121.521C376.817 120.996 376.609 120.692 376.554 120.609C376.03 119.919 375.45 119.284 374.815 118.704C374.179 118.124 373.489 117.834 372.743 117.834V117.42C372.743 117.42 372.951 117.434 373.365 117.461C373.807 117.461 374.331 117.447 374.939 117.42C375.657 117.392 376.444 117.282 377.3 117.088C378.156 116.895 378.957 116.495 379.702 115.887C380.448 115.28 381.014 114.355 381.4 113.112C381.483 112.808 381.552 112.436 381.608 111.994C381.663 111.524 381.677 111.069 381.649 110.627C381.621 108.749 381.138 107.258 380.199 106.153C379.288 105.021 378.059 104.414 376.513 104.331C375.74 104.276 374.939 104.262 374.11 104.289C373.31 104.289 372.633 104.289 372.081 104.289C371.528 104.289 371.252 104.289 371.252 104.289C371.252 104.262 371.211 104.151 371.128 103.958C371.073 103.737 371.004 103.53 370.921 103.337C370.866 103.116 370.838 103.005 370.838 103.005ZM371.377 103.005V132H368.684V103.005H371.377ZM368.808 128.976V132H365.495V131.586C365.495 131.586 365.578 131.586 365.743 131.586C365.937 131.586 366.033 131.586 366.033 131.586C366.751 131.586 367.359 131.337 367.856 130.84C368.38 130.316 368.657 129.694 368.684 128.976H368.808ZM368.808 106.029H368.684C368.657 105.311 368.38 104.704 367.856 104.207C367.359 103.682 366.751 103.42 366.033 103.42C366.033 103.42 365.937 103.42 365.743 103.42C365.578 103.42 365.495 103.42 365.495 103.42V103.005H368.808V106.029ZM371.252 128.976H371.377C371.377 129.694 371.639 130.316 372.164 130.84C372.688 131.337 373.31 131.586 374.028 131.586C374.028 131.586 374.11 131.586 374.276 131.586C374.442 131.586 374.525 131.586 374.525 131.586V132H371.252V128.976ZM408.099 132.58L395.258 103.254H398.779L408.927 128.645L408.099 132.58ZM408.099 132.58L407.726 129.68L418.744 103.13H421.229L410.004 128.314C410.004 128.314 409.921 128.493 409.756 128.852C409.618 129.183 409.438 129.598 409.217 130.095C409.024 130.592 408.844 131.075 408.679 131.544C408.541 132.014 408.472 132.359 408.472 132.58H408.099ZM417.584 105.988C417.888 105.159 417.833 104.524 417.418 104.082C417.004 103.641 416.535 103.42 416.01 103.42H415.637V103.005H423.963V103.42C423.963 103.42 423.894 103.42 423.756 103.42C423.645 103.42 423.59 103.42 423.59 103.42C422.983 103.42 422.334 103.627 421.643 104.041C420.953 104.428 420.387 105.09 419.945 106.029L417.584 105.988ZM399.897 105.988L396.46 106.029C396.045 105.09 395.493 104.428 394.803 104.041C394.112 103.627 393.45 103.42 392.814 103.42C392.814 103.42 392.759 103.42 392.649 103.42C392.538 103.42 392.483 103.42 392.483 103.42V103.005H401.803V103.42H401.43C400.905 103.42 400.436 103.641 400.022 104.082C399.635 104.524 399.594 105.159 399.897 105.988ZM436.896 103.005V132H434.204V103.005H436.896ZM434.328 128.976V132H431.014V131.586C431.014 131.586 431.097 131.586 431.263 131.586C431.456 131.586 431.553 131.586 431.553 131.586C432.271 131.586 432.878 131.337 433.375 130.84C433.9 130.316 434.176 129.694 434.204 128.976H434.328ZM434.328 106.029H434.204C434.176 105.311 433.9 104.704 433.375 104.207C432.878 103.682 432.271 103.42 431.553 103.42C431.553 103.42 431.456 103.42 431.263 103.42C431.097 103.42 431.014 103.42 431.014 103.42V103.005H434.328V106.029ZM436.772 128.976H436.896C436.924 129.694 437.186 130.316 437.683 130.84C438.208 131.337 438.829 131.586 439.547 131.586C439.547 131.586 439.63 131.586 439.795 131.586C439.961 131.586 440.058 131.586 440.085 131.586V132H436.772V128.976ZM436.772 106.029V103.005H440.085V103.42C440.058 103.42 439.961 103.42 439.795 103.42C439.63 103.42 439.547 103.42 439.547 103.42C438.829 103.42 438.208 103.682 437.683 104.207C437.186 104.704 436.924 105.311 436.896 106.029H436.772ZM476.095 119.905L475.598 126.408C474.88 127.596 473.969 128.659 472.864 129.598C471.787 130.509 470.503 131.241 469.012 131.793C467.549 132.318 465.864 132.58 463.959 132.58C461.087 132.552 458.533 131.917 456.296 130.675C454.059 129.432 452.306 127.692 451.035 125.456C449.793 123.191 449.171 120.526 449.171 117.461C449.171 114.451 449.793 111.828 451.035 109.591C452.278 107.327 454.018 105.573 456.254 104.331C458.519 103.061 461.17 102.425 464.207 102.425C466.251 102.425 468.087 102.702 469.716 103.254C471.373 103.779 472.809 104.441 474.024 105.242L474.852 111.082H474.48C473.872 108.652 472.629 106.816 470.752 105.573C468.874 104.303 466.692 103.668 464.207 103.668C461.777 103.668 459.665 104.248 457.87 105.408C456.103 106.54 454.722 108.142 453.728 110.213C452.761 112.256 452.278 114.658 452.278 117.42C452.278 120.181 452.761 122.597 453.728 124.669C454.722 126.74 456.089 128.355 457.828 129.515C459.596 130.675 461.639 131.282 463.959 131.337C465.919 131.337 467.728 130.978 469.385 130.26C471.069 129.515 472.478 128.314 473.61 126.657C474.742 124.972 475.46 122.722 475.764 119.905H476.095ZM491.494 103.005V132H488.802V103.005H491.494ZM502.678 130.716V132H491.37V130.716H502.678ZM500.896 117.088V118.331H491.37V117.088H500.896ZM502.678 103.005V104.289H491.37V103.005H502.678ZM505.204 125.29L502.802 132H495.926L497.417 130.716C498.881 130.716 500.068 130.495 500.979 130.053C501.918 129.584 502.678 128.935 503.257 128.106C503.837 127.278 504.348 126.339 504.79 125.29H505.204ZM500.896 118.248V120.982H500.482V120.361C500.482 119.808 500.289 119.339 499.902 118.952C499.516 118.538 499.046 118.331 498.494 118.331V118.248H500.896ZM500.896 114.438V117.171H498.494V117.088C499.046 117.061 499.516 116.854 499.902 116.467C500.289 116.053 500.482 115.57 500.482 115.017V114.438H500.896ZM502.678 104.165V107.479H502.263V106.733C502.263 106.071 502.029 105.504 501.559 105.035C501.09 104.538 500.51 104.276 499.819 104.248V104.165H502.678ZM502.678 102.26V103.461L497.624 103.005C498.232 103.005 498.867 102.964 499.53 102.881C500.22 102.798 500.855 102.702 501.435 102.591C502.015 102.481 502.429 102.37 502.678 102.26ZM488.926 128.976V132H485.612V131.586C485.612 131.586 485.695 131.586 485.861 131.586C486.054 131.586 486.151 131.586 486.151 131.586C486.869 131.586 487.476 131.337 487.973 130.84C488.498 130.316 488.774 129.694 488.802 128.976H488.926ZM488.926 106.029H488.802C488.802 105.311 488.539 104.704 488.015 104.207C487.49 103.682 486.869 103.42 486.151 103.42C486.151 103.42 486.068 103.42 485.902 103.42C485.736 103.42 485.654 103.42 485.654 103.42L485.612 103.005H488.926V106.029ZM522.4 102.425C522.842 102.425 523.311 102.453 523.808 102.508C524.333 102.564 524.83 102.646 525.299 102.757C525.797 102.84 526.238 102.936 526.625 103.047C527.039 103.13 527.357 103.226 527.578 103.337V107.934H527.205C527.205 106.609 526.749 105.573 525.838 104.828C524.927 104.055 523.822 103.668 522.524 103.668C521.005 103.668 519.777 104.151 518.838 105.118C517.899 106.057 517.429 107.161 517.429 108.432C517.429 108.956 517.54 109.578 517.761 110.295C518.009 110.986 518.451 111.635 519.086 112.242L527.246 119.781C528.075 120.554 528.627 121.382 528.903 122.266C529.179 123.15 529.317 124.006 529.317 124.834C529.317 127.126 528.613 128.99 527.205 130.426C525.824 131.862 523.946 132.58 521.572 132.58C520.909 132.58 520.122 132.511 519.211 132.373C518.327 132.235 517.457 132 516.601 131.669C515.773 131.31 515.082 130.854 514.53 130.302C514.447 129.86 514.406 129.308 514.406 128.645C514.406 127.982 514.461 127.292 514.571 126.574C514.682 125.828 514.834 125.152 515.027 124.544H515.4C515.262 125.953 515.441 127.181 515.938 128.231C516.435 129.28 517.153 130.081 518.092 130.633C519.059 131.158 520.149 131.392 521.364 131.337C522.883 131.254 524.181 130.73 525.258 129.763C526.363 128.769 526.915 127.444 526.915 125.787C526.915 124.986 526.777 124.268 526.501 123.633C526.225 122.97 525.824 122.404 525.299 121.935L517.347 114.562C516.518 113.789 515.938 112.946 515.607 112.035C515.276 111.096 515.11 110.226 515.11 109.426C515.11 108.266 515.386 107.147 515.938 106.071C516.491 104.994 517.305 104.124 518.382 103.461C519.487 102.771 520.826 102.425 522.4 102.425ZM527.578 102.84V103.71H524.43V102.84H527.578Z" fill="white"/>
</svg>
